<svg width="198" height="197" viewBox="0 0 198 197" fill="none" xmlns="http://www.w3.org/2000/svg">
<rect x="-0.500069" y="1.0841" width="102.392" height="157.418" rx="13.3853" transform="matrix(-0.938268 0.345909 0.345909 0.938268 96.3112 0.239902)" fill="#CACACA"/>
<rect x="-0.500069" y="1.0841" width="102.392" height="157.418" rx="13.3853" transform="matrix(-0.938268 0.345909 0.345909 0.938268 96.3112 0.239902)" stroke="white" stroke-width="1.6884"/>
<g clip-path="url(#clip0_1_575)">
<path d="M84.3699 82.6611C83.9669 81.568 83.1462 80.6797 82.0883 80.1918C81.0305 79.7038 79.822 79.656 78.7289 80.059L66.3644 84.6174C65.2713 85.0204 64.3831 85.8411 63.8951 86.899C63.4071 87.9569 63.3594 89.1653 63.7624 90.2584L68.3208 102.623C68.7238 103.716 69.5445 104.604 70.6024 105.092C71.6602 105.58 72.8687 105.628 73.9618 105.225L86.3263 100.667C87.4194 100.264 88.3076 99.4429 88.7956 98.385C89.2836 97.3271 89.3313 96.1187 88.9283 95.0256L84.3699 82.6611Z" stroke="#E4E4E4" stroke-width="2.19634" stroke-linecap="round" stroke-linejoin="round"/>
<path d="M79.5717 90.2813C78.149 90.8057 76.5706 90.0776 76.0461 88.655C75.5216 87.2323 76.2497 85.6538 77.6723 85.1294C79.095 84.6049 80.6735 85.333 81.198 86.7556C81.7224 88.1783 80.9943 89.7568 79.5717 90.2813Z" stroke="#E4E4E4" stroke-width="2.19634" stroke-linecap="round" stroke-linejoin="round"/>
<path d="M73.9784 94.2413L86.3262 100.666L73.8246 105.275C72.7679 105.665 71.5997 105.619 70.5769 105.147C69.5542 104.675 68.7608 103.817 68.3712 102.76L68.3207 102.623C68.1437 102.143 68.256 101.892 68.4495 101.417L70.9324 95.3572C71.0481 95.0747 71.2214 94.8195 71.4413 94.6078C71.6611 94.396 71.9227 94.2324 72.2093 94.1274C72.4959 94.0224 72.8013 93.9783 73.1059 93.9979C73.4105 94.0175 73.7077 94.1004 73.9784 94.2413Z" stroke="#E4E4E4" stroke-width="2.19634" stroke-linecap="round" stroke-linejoin="round"/>
</g>
<rect x="97.0467" y="5.41149" width="102.392" height="157.414" rx="13.3853" transform="rotate(13.6334 97.0467 5.41149)" fill="#E4E4E4"/>
<rect x="97.0467" y="5.41149" width="102.392" height="157.414" rx="13.3853" transform="rotate(13.6334 97.0467 5.41149)" stroke="white" stroke-width="1.6884"/>
<g clip-path="url(#clip1_1_575)">
<path d="M119.129 84.9764C119.404 83.8442 120.117 82.8675 121.111 82.2611C122.106 81.6547 123.301 81.4683 124.433 81.7429L137.24 84.8491C138.372 85.1237 139.349 85.8368 139.955 86.8316C140.562 87.8263 140.748 89.0212 140.473 90.1534L137.367 102.96C137.093 104.092 136.38 105.069 135.385 105.675C134.39 106.282 133.195 106.468 132.063 106.194L119.256 103.087C118.124 102.813 117.147 102.1 116.541 101.105C115.935 100.11 115.748 98.9154 116.023 97.7832L119.129 84.9764Z" stroke="#CECECE" stroke-width="2.19634" stroke-linecap="round" stroke-linejoin="round"/>
<path d="M124.772 91.9945C126.245 92.3519 127.73 91.4471 128.087 89.9735C128.444 88.5 127.539 87.0157 126.066 86.6584C124.592 86.301 123.108 87.2058 122.751 88.6793C122.393 90.1528 123.298 91.6371 124.772 91.9945Z" stroke="#CECECE" stroke-width="2.19634" stroke-linecap="round" stroke-linejoin="round"/>
<path d="M130.783 95.2848L119.256 103.087L132.205 106.228C133.299 106.494 134.455 106.313 135.416 105.727C136.378 105.141 137.067 104.197 137.333 103.102L137.367 102.96C137.488 102.463 137.347 102.226 137.101 101.777L133.937 96.0431C133.79 95.7758 133.588 95.5422 133.346 95.3571C133.103 95.1721 132.824 95.0397 132.527 94.9683C132.231 94.897 131.922 94.8883 131.622 94.9428C131.322 94.9973 131.036 95.1138 130.783 95.2848Z" stroke="#CECECE" stroke-width="2.19634" stroke-linecap="round" stroke-linejoin="round"/>
</g>
<mask id="path-9-outside-1_1_575" maskUnits="userSpaceOnUse" x="50.8861" y="10.3" width="143.866" height="187.671" fill="black">
<rect fill="white" x="50.8861" y="10.3" width="143.866" height="187.671"/>
<path d="M186.72 12.0869L194.068 17.5356L61.1155 196.827L53.7677 191.378L186.72 12.0869Z"/>
</mask>
<path d="M186.72 12.0869L194.068 17.5356L61.1155 196.827L53.7677 191.378L186.72 12.0869Z" fill="#F8F8F8"/>
<path d="M53.7677 191.378L55.802 192.887L188.754 13.5954L186.72 12.0869L184.686 10.5784L51.7334 189.87L53.7677 191.378Z" fill="#CACACA" mask="url(#path-9-outside-1_1_575)"/>
<defs>
<clipPath id="clip0_1_575">
<rect width="26.3561" height="26.3561" fill="white" transform="matrix(-0.938268 0.345909 0.345909 0.938268 84.1516 75.7192)"/>
</clipPath>
<clipPath id="clip1_1_575">
<rect width="26.3561" height="26.3561" fill="white" transform="translate(118.548 78.0557) rotate(13.6334)"/>
</clipPath>
</defs>
</svg>
