<svg width="110" height="26" viewBox="0 0 110 26" fill="none" xmlns="http://www.w3.org/2000/svg">
<rect x="0.25" y="0.25" width="109.5" height="25.5" rx="12.75" fill="white" fill-opacity="0.2"/>
<rect x="0.25" y="0.25" width="109.5" height="25.5" rx="12.75" stroke="url(#paint0_linear_1_51)" stroke-width="0.5"/>
<path d="M10.56 15.746V14.78L15.474 7.976H17V14.64H18.4V15.746H17V18H15.74V15.746H10.56ZM15.796 9.306L12.03 14.64H15.796V9.306ZM33.8351 10.328L31.4411 18H30.1251L28.2771 11.91L26.4291 18H25.1131L22.7051 10.328H24.0071L25.7711 16.768L27.6751 10.328H28.9771L30.8391 16.782L32.5751 10.328H33.8351ZM34.6235 14.136C34.6235 13.352 34.7822 12.666 35.0995 12.078C35.4168 11.4807 35.8508 11.0187 36.4015 10.692C36.9615 10.3653 37.5822 10.202 38.2635 10.202C38.9355 10.202 39.5188 10.3467 40.0135 10.636C40.5082 10.9253 40.8768 11.2893 41.1195 11.728V10.328H42.4075V18H41.1195V16.572C40.8675 17.02 40.4895 17.3933 39.9855 17.692C39.4908 17.9813 38.9122 18.126 38.2495 18.126C37.5682 18.126 36.9522 17.958 36.4015 17.622C35.8508 17.286 35.4168 16.8147 35.0995 16.208C34.7822 15.6013 34.6235 14.9107 34.6235 14.136ZM41.1195 14.15C41.1195 13.5713 41.0028 13.0673 40.7695 12.638C40.5362 12.2087 40.2188 11.882 39.8175 11.658C39.4255 11.4247 38.9915 11.308 38.5155 11.308C38.0395 11.308 37.6055 11.42 37.2135 11.644C36.8215 11.868 36.5088 12.1947 36.2755 12.624C36.0422 13.0533 35.9255 13.5573 35.9255 14.136C35.9255 14.724 36.0422 15.2373 36.2755 15.676C36.5088 16.1053 36.8215 16.4367 37.2135 16.67C37.6055 16.894 38.0395 17.006 38.5155 17.006C38.9915 17.006 39.4255 16.894 39.8175 16.67C40.2188 16.4367 40.5362 16.1053 40.7695 15.676C41.0028 15.2373 41.1195 14.7287 41.1195 14.15ZM45.8344 7.64V18H44.5604V7.64H45.8344ZM49.2797 7.64V18H48.0057V7.64H49.2797ZM52.725 11.742C52.977 11.3033 53.3504 10.9393 53.845 10.65C54.349 10.3513 54.9324 10.202 55.595 10.202C56.2764 10.202 56.8924 10.3653 57.443 10.692C58.003 11.0187 58.4417 11.4807 58.759 12.078C59.0764 12.666 59.235 13.352 59.235 14.136C59.235 14.9107 59.0764 15.6013 58.759 16.208C58.4417 16.8147 58.003 17.286 57.443 17.622C56.8924 17.958 56.2764 18.126 55.595 18.126C54.9417 18.126 54.363 17.9813 53.859 17.692C53.3644 17.3933 52.9864 17.0247 52.725 16.586V21.64H51.451V10.328H52.725V11.742ZM57.933 14.136C57.933 13.5573 57.8164 13.0533 57.583 12.624C57.3497 12.1947 57.0324 11.868 56.631 11.644C56.239 11.42 55.805 11.308 55.329 11.308C54.8624 11.308 54.4284 11.4247 54.027 11.658C53.635 11.882 53.3177 12.2133 53.075 12.652C52.8417 13.0813 52.725 13.5807 52.725 14.15C52.725 14.7287 52.8417 15.2373 53.075 15.676C53.3177 16.1053 53.635 16.4367 54.027 16.67C54.4284 16.894 54.8624 17.006 55.329 17.006C55.805 17.006 56.239 16.894 56.631 16.67C57.0324 16.4367 57.3497 16.1053 57.583 15.676C57.8164 15.2373 57.933 14.724 57.933 14.136ZM60.436 14.136C60.436 13.352 60.5947 12.666 60.912 12.078C61.2293 11.4807 61.6633 11.0187 62.214 10.692C62.774 10.3653 63.3947 10.202 64.076 10.202C64.748 10.202 65.3313 10.3467 65.826 10.636C66.3207 10.9253 66.6893 11.2893 66.932 11.728V10.328H68.22V18H66.932V16.572C66.68 17.02 66.302 17.3933 65.798 17.692C65.3033 17.9813 64.7247 18.126 64.062 18.126C63.3807 18.126 62.7647 17.958 62.214 17.622C61.6633 17.286 61.2293 16.8147 60.912 16.208C60.5947 15.6013 60.436 14.9107 60.436 14.136ZM66.932 14.15C66.932 13.5713 66.8153 13.0673 66.582 12.638C66.3487 12.2087 66.0313 11.882 65.63 11.658C65.238 11.4247 64.804 11.308 64.328 11.308C63.852 11.308 63.418 11.42 63.026 11.644C62.634 11.868 62.3213 12.1947 62.088 12.624C61.8547 13.0533 61.738 13.5573 61.738 14.136C61.738 14.724 61.8547 15.2373 62.088 15.676C62.3213 16.1053 62.634 16.4367 63.026 16.67C63.418 16.894 63.852 17.006 64.328 17.006C64.804 17.006 65.238 16.894 65.63 16.67C66.0313 16.4367 66.3487 16.1053 66.582 15.676C66.8153 15.2373 66.932 14.7287 66.932 14.15ZM71.6469 11.742C71.8989 11.3033 72.2723 10.9393 72.7669 10.65C73.2709 10.3513 73.8543 10.202 74.5169 10.202C75.1983 10.202 75.8143 10.3653 76.3649 10.692C76.9249 11.0187 77.3636 11.4807 77.6809 12.078C77.9983 12.666 78.1569 13.352 78.1569 14.136C78.1569 14.9107 77.9983 15.6013 77.6809 16.208C77.3636 16.8147 76.9249 17.286 76.3649 17.622C75.8143 17.958 75.1983 18.126 74.5169 18.126C73.8636 18.126 73.2849 17.9813 72.7809 17.692C72.2863 17.3933 71.9083 17.0247 71.6469 16.586V21.64H70.3729V10.328H71.6469V11.742ZM76.8549 14.136C76.8549 13.5573 76.7383 13.0533 76.5049 12.624C76.2716 12.1947 75.9543 11.868 75.5529 11.644C75.1609 11.42 74.7269 11.308 74.2509 11.308C73.7843 11.308 73.3503 11.4247 72.9489 11.658C72.5569 11.882 72.2396 12.2133 71.9969 12.652C71.7636 13.0813 71.6469 13.5807 71.6469 14.15C71.6469 14.7287 71.7636 15.2373 71.9969 15.676C72.2396 16.1053 72.5569 16.4367 72.9489 16.67C73.3503 16.894 73.7843 17.006 74.2509 17.006C74.7269 17.006 75.1609 16.894 75.5529 16.67C75.9543 16.4367 76.2716 16.1053 76.5049 15.676C76.7383 15.2373 76.8549 14.724 76.8549 14.136ZM86.8339 13.87C86.8339 14.1127 86.8199 14.3693 86.7919 14.64H80.6599C80.7065 15.396 80.9632 15.9887 81.4299 16.418C81.9059 16.838 82.4799 17.048 83.1519 17.048C83.7025 17.048 84.1599 16.922 84.5239 16.67C84.8972 16.4087 85.1585 16.0633 85.3079 15.634H86.6799C86.4745 16.3713 86.0639 16.9733 85.4479 17.44C84.8319 17.8973 84.0665 18.126 83.1519 18.126C82.4239 18.126 81.7705 17.9627 81.1919 17.636C80.6225 17.3093 80.1745 16.8473 79.8479 16.25C79.5212 15.6433 79.3579 14.9433 79.3579 14.15C79.3579 13.3567 79.5165 12.6613 79.8339 12.064C80.1512 11.4667 80.5945 11.0093 81.1639 10.692C81.7425 10.3653 82.4052 10.202 83.1519 10.202C83.8799 10.202 84.5239 10.3607 85.0839 10.678C85.6439 10.9953 86.0732 11.434 86.3719 11.994C86.6799 12.5447 86.8339 13.17 86.8339 13.87ZM85.5179 13.604C85.5179 13.1187 85.4105 12.7033 85.1959 12.358C84.9812 12.0033 84.6872 11.7373 84.3139 11.56C83.9499 11.3733 83.5439 11.28 83.0959 11.28C82.4519 11.28 81.9012 11.4853 81.4439 11.896C80.9959 12.3067 80.7392 12.876 80.6739 13.604H85.5179ZM89.7895 11.574C90.0135 11.1353 90.3308 10.7947 90.7415 10.552C91.1615 10.3093 91.6702 10.188 92.2675 10.188V11.504H91.9315C90.5035 11.504 89.7895 12.2787 89.7895 13.828V18H88.5155V10.328H89.7895V11.574ZM96.4542 18.126C95.8662 18.126 95.3388 18.028 94.8722 17.832C94.4055 17.6267 94.0368 17.3467 93.7662 16.992C93.4955 16.628 93.3462 16.2127 93.3182 15.746H94.6342C94.6715 16.1287 94.8488 16.4413 95.1662 16.684C95.4928 16.9267 95.9175 17.048 96.4402 17.048C96.9255 17.048 97.3082 16.9407 97.5882 16.726C97.8682 16.5113 98.0082 16.2407 98.0082 15.914C98.0082 15.578 97.8588 15.3307 97.5602 15.172C97.2615 15.004 96.7995 14.8407 96.1742 14.682C95.6048 14.5327 95.1382 14.3833 94.7742 14.234C94.4195 14.0753 94.1115 13.8467 93.8502 13.548C93.5982 13.24 93.4722 12.8387 93.4722 12.344C93.4722 11.952 93.5888 11.5927 93.8222 11.266C94.0555 10.9393 94.3868 10.6827 94.8162 10.496C95.2455 10.3 95.7355 10.202 96.2862 10.202C97.1355 10.202 97.8215 10.4167 98.3442 10.846C98.8668 11.2753 99.1468 11.8633 99.1842 12.61H97.9102C97.8822 12.2087 97.7188 11.8867 97.4202 11.644C97.1308 11.4013 96.7388 11.28 96.2442 11.28C95.7868 11.28 95.4228 11.378 95.1522 11.574C94.8815 11.77 94.7462 12.0267 94.7462 12.344C94.7462 12.596 94.8255 12.806 94.9842 12.974C95.1522 13.1327 95.3575 13.2633 95.6002 13.366C95.8522 13.4593 96.1975 13.5667 96.6362 13.688C97.1868 13.8373 97.6348 13.9867 97.9802 14.136C98.3255 14.276 98.6195 14.4907 98.8622 14.78C99.1142 15.0693 99.2448 15.4473 99.2542 15.914C99.2542 16.334 99.1375 16.712 98.9042 17.048C98.6708 17.384 98.3395 17.65 97.9102 17.846C97.4902 18.0327 97.0048 18.126 96.4542 18.126Z" fill="white"/>
<defs>
<linearGradient id="paint0_linear_1_51" x1="4.07316" y1="2.83344" x2="103.838" y2="27.402" gradientUnits="userSpaceOnUse">
<stop stop-color="white"/>
<stop offset="0.240561" stop-color="#CFCFCF" stop-opacity="0"/>
<stop offset="0.735621" stop-color="#EEEEEE" stop-opacity="0"/>
<stop offset="1" stop-color="white"/>
</linearGradient>
</defs>
</svg>
